<svg t="1675507553858" class="icon" viewBox="0 0 1024 1024" version="1.1" xmlns="http://www.w3.org/2000/svg" p-id="3422" width="200" height="200"><path d="M652 63.97s-61.31 33.4-139.96 37.89c-78.64-4.49-139.96-37.89-139.96-37.89L308.9 86.13l10.77 117.63 192.38 48.92 192.38-48.92 10.74-117.29L652 63.97z" fill="#631A28" p-id="3423"></path><path d="M861.42 410.78l0.58-272.79-210-74.02c-24.84 126.31-141.95 155.11-141.95 155.11S395.09 195.8 370.99 63.97L159.89 138l0.58 272.79s4.37 38.47-25.37 86.56v431.04H886.46s0.33-379.46 0.33-431.04c-29.74-48.1-25.37-86.57-25.37-86.57z" fill="#7C1E2C" p-id="3424"></path><path d="M210.3 120.07v282.71s10.84 110.65-75.17 169.92c-0.4-50.2 0-63.51 0-75.86 7.83-14.01 16.47-24.62 23.51-62.84 0.54-2.96 1.86-17.82 1.86-23.42-0.09-131.78-0.84-272.88-0.84-272.88l50.64-17.63z" fill="#282C51" p-id="3425"></path><path d="M380.03 92.56c62 31.02 131.98 35.08 131.98 35.08s0.04-1.53 0.04-25.78c-76.65-5.5-139.96-37.9-139.96-37.9s-1.48 11.6 7.94 28.6z" fill="#1F233D" p-id="3426"></path><path d="M652.01 63.96s-63.31 32.39-139.96 37.9c0 24.25-0.04 25.78-0.04 25.78s70.07-4.06 132.06-35.08c9.41-17 7.94-28.6 7.94-28.6z" fill="#1F233D" p-id="3427"></path><path d="M136.2 879.69h750.28v48.69H136.2z" fill="#681B2A" p-id="3428"></path><path d="M440.53 177.21l71.4 21.04 69.81-21.04-69.81 71.89z" fill="#F9DE69" p-id="3429"></path><path d="M652.01 63.96s-40.74 120.2-139.97 160.02c-101.11-36.45-140.9-160.03-140.9-160.03s-1.06 0.17-36.7 12.86c44.42 151.77 177.48 185.75 177.48 185.75S632.06 237.27 687.45 76.4c-27.35-9.12-35.44-12.44-35.44-12.44z" fill="#282C51" p-id="3430"></path><path d="M295.23 387.37c-0.04-2.96-0.11-5.59-0.2-7.91-0.09-2.31-0.44-4.61-1.05-6.89-0.61-2.28-2.07-3.43-4.43-3.5-3.86-0.12-5.82-0.18-9.85-0.33-1.96-0.07-3.55 0.17-4.75 0.73s-2.09 1.31-2.68 2.27c-0.59 0.96-1.14 2.75-1.65 5.42s-0.81 6.71-0.89 12.24c-0.18 12.36-0.35 24.72-0.51 37.08-0.1 7.35 0.07 12.51 0.52 15.44 0.44 2.93 0.93 5.05 1.45 6.34 0.53 1.3 1.17 2.25 1.92 2.87 0.75 0.61 2.39 0.94 4.9 0.93 3.94-0.01 5.88-0.05 9.74-0.19 3.42-0.13 5.44-1.49 6.12-4.01 0.67-2.52 1.04-4.89 1.11-7.12 0.19-4.86 0.28-7.3 0.47-12.16 6.21-0.2 9.25-0.37 15.24-0.78-0.32 11.88-0.48 17.89-0.81 29.65-0.12 4.18-0.57 7.89-1.35 11.15-0.78 3.26-1.84 5.99-3.17 8.2a23.219 23.219 0 0 1-5.11 5.89c-2.07 1.71-4.02 2.66-5.85 2.83-9.53 0.93-14.35 1.19-24.18 1.02-1.61-0.03-3.63-0.68-6.07-2.01-2.44-1.33-4.44-3.65-5.98-6.98-1.55-3.33-2.7-6.63-3.43-9.87-0.73-3.23-1.25-6.92-1.54-11.07-0.29-4.15-0.44-7.86-0.44-11.12 0.02-24.74 0.02-49.48 0.04-74.23 0-2.62 0.14-5.53 0.41-8.7 0.27-3.16 0.84-5.92 1.72-8.33 0.87-2.41 2.2-4.87 3.96-7.37 1.76-2.5 3.73-4.26 5.88-5.37 2.15-1.1 4.24-1.64 6.27-1.61 11.41 0.16 16.63 0.28 26.57 0.56 1.64 0.05 3.15 0.53 4.55 1.46 1.4 0.93 2.72 2.12 3.95 3.57 1.23 1.45 2.3 3.76 3.22 7 0.92 3.25 1.39 8.46 1.42 16 0.03 7.36 0.04 11.18 0.07 18.94-6.08 0.06-9.18 0.05-15.59-0.04zM316.99 341.61c5.28 0.19 7.84 0.29 12.9 0.5-0.21 34.75-0.33 69.5-0.48 104.25 11.32-1.67 16.87-2.68 28.04-4.65-1.4 12.94-2.13 19.48-3.64 32.25-12.94 3.09-25.77 5.92-38.83 8.42 0.68-46.92 1.19-93.85 2.01-140.77zM359.63 343.32c14.74 0.57 29.49 1 44.25 1.21-0.87 9.59-1.3 14.44-2.15 24.3-11.92-0.04-17.47-0.03-28.4-0.03 0.4 9.48 0.6 14.34 1 24.16 11.75-0.61 17.7-0.92 30.36-1.29-0.71 9.02-1.06 13.58-1.77 22.77-11.35 0.89-16.8 1.49-27.62 2.73 0.4 10.04 0.61 15.09 1.01 25.1 10.98-2.01 22.09-3.76 33.17-5.02-0.88 9.98-1.32 15.01-2.2 25.05-14.85 2.57-29.52 6.03-44.14 9.67-1.14-42.9-2.24-85.78-3.51-128.65zM461.44 344.61c7.61-0.01 11.37-0.01 18.82-0.02-8.21 37.43-15.92 74.94-22.9 112.62-7.04 0.43-10.55 0.68-17.6 1.23-9.87-38.09-20.53-75.97-30.82-113.94 7.03 0.07 10.72 0.08 18.79 0.07 6.95 24.13 13.55 48.35 19.84 72.66 4.35-24.26 8.98-48.45 13.87-72.62zM485.35 344.59c17.32-0.01 34.64-0.01 51.97-0.01-1.77 9.38-2.65 14.07-4.4 23.45-12.74-0.04-19.11-0.03-32 0.02-0.07 8.64-0.1 12.96-0.17 21.61 11.13-0.09 22.26-0.1 33.39-0.02-1.5 8.44-2.24 12.66-3.72 21.09-11.9-0.08-17.86-0.07-29.84 0.06-0.07 8.71-0.1 13.06-0.17 21.77 11.63-0.18 23.28-0.19 34.91-0.01-1.72 9.2-2.57 13.8-4.27 23-15.21-0.2-30.42-0.05-45.62 0.45-0.02-37.15-0.05-74.28-0.08-111.41zM543.32 344.59c6.09 0 9.14 0 15.24 0.01l-2.58 85.06c12.09 0.35 18.13 0.59 30.26 1.21-2.28 10.55-3.4 15.81-5.63 26.32-13.36-0.75-26.67-1.33-40.05-1.73l2.76-110.87zM620.98 344.38c7.68-0.07 11.35-0.14 18.47-0.34 5.94 41.25 11.18 82.59 17.14 123.83-6.5-1.49-9.76-2.22-16.29-3.53-1.32-9.56-1.97-14.47-3.27-24.28-9.82-1.59-14.79-2.3-24.92-3.33-2.57 8.96-3.84 13.43-6.36 22.37-6.37-0.57-9.55-0.82-15.91-1.29 10.05-37.9 20.56-75.67 31.14-113.43z m-3.38 71.06c6.84 0.55 10.19 0.87 16.81 1.59-1.84-13.93-3.71-27.85-5.66-41.75-3.67 13.4-7.38 26.79-11.15 40.16zM666.76 343.21c7.22-0.21 10.74-0.34 17.78-0.56 7.1 30.96 13.66 62.03 20.55 93.04 0.11-31.36 0.18-62.71 0.43-94.06 5.14-0.22 7.73-0.33 12.99-0.5 0.15 47.11 0.61 94.22 0.78 141.34-8.58-1.6-12.86-2.54-21.4-4.5-7.24-28.95-13.48-58.1-19.72-87.28-0.69 24.48-1.34 48.97-2.15 73.45-5.84 2.98-8.79 4.36-14.74 7.06 1.98-42.66 3.5-85.33 5.48-127.99zM723.11 340.63c13.84-0.39 27.69-0.43 41.54-0.06 2.65 0.07 5.17 1.16 7.53 3.34 2.36 2.18 4.15 4.88 5.34 8.2 1.19 3.33 2.26 8.13 3.2 14.74 0.95 6.62 1.44 12.52 1.48 17.43 0.16 17.4 0.33 34.8 0.49 52.2 0.09 9.33-0.21 17.5-0.88 24.49-0.67 6.99-1.52 11.92-2.55 15.19-1.03 3.27-2.37 5.89-4.02 7.96-1.66 2.07-4.32 3.12-7.99 3.12-14.4-0.03-28.75-1.57-42.92-4.05-0.33-47.52-0.92-95.04-1.22-142.56z m13.86 30.66c0.42 27.71 0.88 55.42 1.3 83.13 8.52 0.94 12.83 1.31 21.59 1.7 1.78 0.08 3.15-1.2 4.11-3.87 0.96-2.67 1.57-5.05 1.82-7.09 0.26-2.04 0.32-7.26 0.17-15.86-0.16-9.45-0.24-14.27-0.41-23.78-0.13-7.8-0.3-13.63-0.5-17.55s-0.82-7.67-1.86-11.26c-1.04-3.58-2.67-5.33-4.86-5.34-8.84-0.03-13.08-0.05-21.36-0.08z" fill="#F9DE69" p-id="3431"></path><path d="M512.1 928.38h374.4l0.33-432.18s-24.72-35.09-24.67-82.41 0.66-275.83 0.66-275.83L652 63.97s-61.38 31.87-139.9 37.95v826.46z" fill="#280B13" opacity=".21" p-id="3432"></path><path d="M811.87 120.46v282.71s-11.14 110.65 74.87 169.92c0.4-50.2 0.29-63.51 0.29-75.86-7.83-14.01-16.47-24.62-23.51-62.84-0.54-2.96-1.86-17.82-1.86-23.42 0.09-131.78 0.84-272.88 0.84-272.88l-50.63-17.63z" fill="#282C51" p-id="3433"></path><path d="M372.53 632.11V618.9c0-13.84 0.2-24.51 0.6-32.01 0.4-7.49 1.75-14.3 4.07-20.42 2.31-6.12 4.75-10.5 7.3-13.13 2.55-2.63 5.09-4.58 7.6-5.84 2.51-1.26 5.45-2.34 8.8-3.26 3.35-0.91 6.54-1.37 9.58-1.37h34.11c2.31 0 5.37 0.63 9.16 1.89 3.79 1.26 6.88 2.6 9.28 4.03 2.39 1.43 4.51 3.29 6.34 5.58s3.45 4.72 4.85 7.29c1.39 2.57 2.73 5.81 4.01 9.7 1.28 3.89 2.15 6.89 2.63 9.01s0.9 5.87 1.26 11.24c0.36 5.38 0.6 9.18 0.72 11.41 0.12 2.23 0.18 7.24 0.18 15.02-0.08 12.47-0.38 21.37-0.9 26.69s-1.18 9.67-1.97 13.04c-0.8 3.38-1.84 6.81-3.11 10.3-1.28 3.49-2.75 6.69-4.43 9.61-1.68 2.92-4.01 5.35-7 7.29-2.99 1.95-5.21 3.15-6.64 3.6-1.44 0.46-7.7 1.6-18.79 3.43l-16.88 3.6c-3.75 0.69-6.38 1.6-7.9 2.75-1.52 1.14-2.75 2.83-3.71 5.06-0.96 2.23-1.56 4.72-1.79 7.47l-0.24 11.16-0.12 3.6c-0.08 2.29 0.2 3.95 0.84 4.98 0.32 0.69 0.78 1.26 1.38 1.72 0.6 0.46 1.18 0.72 1.74 0.77 0.56 0.06 2.31 0.09 5.27 0.09h64.75l-14.12 48.06h-96.71V724.1c0-11.21 0.26-18.76 0.78-22.66 0.52-3.89 1.24-8.44 2.15-13.64 0.92-5.21 2.31-9.96 4.19-14.25 1.87-4.29 3.87-7.69 5.98-10.21 2.11-2.52 4.41-4.63 6.88-6.35 2.47-1.72 5.54-3.23 9.22-4.55 3.67-1.31 8.18-2.4 13.52-3.26 5.35-0.86 8.7-1.52 10.05-1.97l3.71-1.03c5.27-1.14 8.6-2.03 9.99-2.66 1.4-0.63 2.63-2.09 3.71-4.38s1.74-5.78 1.98-10.47l0.36-13.04c0.48-11.33-0.2-18.42-2.03-21.28-1.6-2.29-3.07-3.58-4.43-3.86-1.36-0.28-3.95-0.43-7.78-0.43h-10.05c-2.79 0-5.13 0.69-7 2.06-1.88 1.37-3.29 2.83-4.25 4.38-0.96 1.54-1.64 6.55-2.03 15.02-0.4 8.47-0.56 13.62-0.48 15.45v5.15h-34.63zM567.94 683.08v-46.17h37.58c1.67 0 3.69-0.43 6.04-1.29 2.35-0.86 4.05-1.92 5.09-3.17 1.04-1.26 1.81-3 2.33-5.24 0.52-2.23 0.8-6.52 0.84-12.87 0.04-6.35-0.34-10.84-1.14-13.47-1.04-3.2-2.39-5.43-4.07-6.69-1.68-1.26-3.95-1.89-6.82-1.89h-18.43c-4.39 0-7.4 1.03-9.04 3.09-1.64 2.06-2.65 3.6-3.05 4.63-0.4 1.03-0.6 4.35-0.6 9.95v11.16H544.6c0-2.52-0.02-4.35-0.06-5.49-0.04-1.14-0.1-4.26-0.18-9.35-0.08-5.09-0.04-9.87 0.12-14.33 0.32-10.64 1.57-18.96 3.77-24.97 2.19-6.01 4.51-10.27 6.94-12.79 2.43-2.52 5.23-4.86 8.38-7.04 3.15-2.17 7.96-3.26 14.42-3.26h46.2c2.39 0 5.51 0.77 9.34 2.32s7.44 4.15 10.83 7.81c3.39 3.66 6.02 9.01 7.9 16.05 1.87 7.04 3.01 13.47 3.41 19.31 0.4 5.83 0.56 12.36 0.48 19.57-0.16 8.47-0.66 15.88-1.5 22.23s-1.97 10.67-3.41 12.96l-5.63 10.47c2.71 4.35 4.71 7.87 5.98 10.56 1.28 2.69 2.31 5.66 3.11 8.92 0.8 3.26 1.5 7.41 2.09 12.44 0.6 5.04 0.86 14.02 0.78 26.95-0.16 7.89-0.42 13.85-0.78 17.85-0.36 4.01-1.08 8.64-2.16 13.9s-2.29 9.55-3.65 12.87c-1.36 3.32-3.47 6.87-6.34 10.64-2.87 3.78-5.17 6.18-6.88 7.21-1.72 1.03-4.77 2.15-9.16 3.35-4.39 1.2-7.22 1.8-8.5 1.8H589l-10.89 0.34c-3.75-0.12-7.52-0.92-11.31-2.4-3.79-1.49-7.24-3.95-10.35-7.38s-5.85-8.87-8.2-16.31c-2.35-7.44-3.63-14.39-3.83-20.85-0.2-6.46-0.3-12.27-0.3-17.42V706.6h33.87c-0.08 5.04-0.08 9.5 0 13.39 0.08 3.89 0.6 6.58 1.56 8.07 0.96 1.49 1.99 2.46 3.11 2.92 1.12 0.46 3.35 0.69 6.7 0.69h17.59c4.07 0 7.26-1.2 9.58-3.6 2.31-2.4 3.69-6.75 4.13-13.04 0.44-6.29 0.34-12.41-0.3-18.37-0.56-4.58-1.52-7.98-2.87-10.21-1.36-2.23-3.15-3.35-5.39-3.35h-44.16z" fill="#282C51" p-id="3434"></path></svg>